Coordinates
version=1
nRows=21
nColumns=22
inDegrees=yes

Units are S.I. units (second, meters, Newtons, ...)
If the header above contains a line with 'inDegrees', this indicates whether rotational values are in degrees (yes) or radians (no).

endheader
time	pelvis_tilt	pelvis_list	pelvis_rotation	pelvis_tx	pelvis_ty	pelvis_tz	hip_flexion_r	hip_adduction_r	hip_rotation_r	knee_angle_r	ankle_angle_r	subtalar_angle_r	hip_flexion_l	hip_adduction_l	hip_rotation_l	knee_angle_l	ankle_angle_l	subtalar_angle_l	lumbar_extension	lumbar_bending	lumbar_rotation
      1.41000000	      0.30915533	     -0.52402389	      0.29128055	     -1.70489715	      1.07213123	     -0.31307192	      0.70538012	      2.52751706	     -1.12712934	    -16.90796703	     16.38960196	     -3.26356190	      2.50097255	     -1.28185803	      0.13930414	    -19.82182248	     16.59042204	      1.30481103	     -4.07767903	     -1.60197356	     -5.45635100
      1.42000000	      0.23679063	     -0.73106137	      0.27789297	     -1.70417967	      1.07168464	     -0.31164692	      0.66699416	      2.83733493	     -1.01473281	    -16.78167281	     16.37811056	     -3.29123053	      3.09781077	     -1.55558219	      0.24752467	    -20.87420609	     16.71926523	      1.39850278	     -4.16832445	     -1.37273330	     -5.30163733
      1.43000000	      0.14838176	     -0.92400722	      0.26029207	     -1.70349053	      1.07121235	     -0.31021195	      0.65481731	      3.13090561	     -0.91845048	    -16.66730465	     16.39149923	     -3.36168880	      3.76621782	     -1.80874856	      0.37309211	    -22.02513602	     16.77632634	      1.52445745	     -4.25576366	     -1.16244472	     -5.12672077
      1.44000000	      0.14229602	     -1.11753166	      0.24103691	     -1.70279389	      1.07087799	     -0.30877736	      0.54657979	      3.42723397	     -0.81187549	    -16.53690310	     16.34150217	     -3.42464198	      4.38524843	     -2.05254284	      0.54151318	    -23.24902114	     16.78384844	      1.58595632	     -4.45334456	     -0.95132310	     -4.94450480
      1.45000000	      0.09784908	     -1.28730454	      0.22403915	     -1.70213832	      1.07050593	     -0.30735240	      0.49141759	      3.69767459	     -0.71928333	    -16.42371052	     16.30173314	     -3.53393123	      5.11006643	     -2.26241449	      0.74096588	    -24.58516833	     16.69081019	      1.70676219	     -4.62059587	     -0.77043887	     -4.75445324
      1.46000000	      0.00504328	     -1.40658042	      0.20852848	     -1.70152047	      1.07008515	     -0.30595238	      0.51050626	      3.91223088	     -0.64936198	    -16.34969715	     16.30465030	     -3.71535433	      5.94878980	     -2.40542141	      0.97914593	    -26.02746007	     16.47785851	      1.92539528	     -4.74292979	     -0.64997096	     -4.55640877
      1.47000000	     -0.03166634	     -1.51471324	      0.20319425	     -1.70088470	      1.06978729	     -0.30458829	      0.46362293	      4.11508561	     -0.58403761	    -16.26516047	     16.27155752	     -3.87209950	      6.77705058	     -2.52172091	      1.26602736	    -27.55533060	     16.16709342	      2.12988037	     -4.94015581	     -0.54032510	     -4.36851766
      1.48000000	     -0.07430890	     -1.59327397	      0.20331624	     -1.70026801	      1.06952316	     -0.30327147	      0.43655918	      4.28358154	     -0.53343841	    -16.20217032	     16.22932446	     -4.04176541	      7.66637887	     -2.58564940	      1.61177773	    -29.17221767	     15.72263632	      2.39172307	     -5.14296485	     -0.46236264	     -4.17438630
      1.49000000	     -0.11238074	     -1.64387593	      0.21377502	     -1.69963000	      1.06930155	     -0.30201322	      0.41276574	      4.41929233	     -0.50025265	    -16.15655168	     16.19145052	     -4.20823785	      8.60137399	     -2.59867606	      2.00238883	    -30.86950818	     15.16283648	      2.69891534	     -5.35605282	     -0.41283027	     -3.98569997
      1.50000000	     -0.15111324	     -1.66940123	      0.23154851	     -1.69896812	      1.06910940	     -0.30081664	      0.39829748	      4.52462214	     -0.48631698	    -16.12837290	     16.15855634	     -4.36947354	      9.58271030	     -2.56086374	      2.43470502	    -32.63405588	     14.48628821	      3.05562770	     -5.57304851	     -0.38801947	     -3.79307320
      1.51000000	     -0.19189827	     -1.66855049	      0.24989367	     -1.69826129	      1.06893680	     -0.29968337	      0.39378968	      4.59725140	     -0.48150866	    -16.11898364	     16.13384333	     -4.52365256	     10.60270963	     -2.47348151	      2.88161049	    -34.44655537	     13.70472555	      3.46160890	     -5.78979863	     -0.38827177	     -3.59487736
      1.52000000	     -0.23492936	     -1.65328429	      0.27417761	     -1.69749458	      1.06877103	     -0.29862214	      0.39781090	      4.64915243	     -0.49238491	    -16.12584358	     16.11795970	     -4.66683535	     11.65442957	     -2.34924198	      3.34143137	    -36.28793618	     12.83593315	      3.90338023	     -6.00270892	     -0.39908911	     -3.39001468
      1.53000000	     -0.27866501	     -1.62415485	      0.29057671	     -1.69664387	      1.06860152	     -0.29760743	      0.40435525	      4.68201223	     -0.50417116	    -16.14488134	     16.12521041	     -4.79854729	     12.72193032	     -2.19993421	      3.76721979	    -38.12570754	     11.91801508	      4.37433831	     -6.21243261	     -0.42186193	     -3.17874588
      1.54000000	     -0.31857586	     -1.58481979	      0.31069722	     -1.69570048	      1.06843670	     -0.29666736	      0.40072803	      4.69822508	     -0.52826144	    -16.16158688	     16.13674482	     -4.91155040	     13.78882232	     -2.02883266	      4.16414149	    -39.92336310	     10.98049135	      4.84498977	     -6.42433193	     -0.45186588	     -2.95833126
      1.55000000	     -0.36068433	     -1.53937340	      0.32829736	     -1.69464005	      1.06825712	     -0.29578426	      0.39376976	      4.70351649	     -0.55230519	    -16.18077008	     16.16286115	     -5.01174603	     14.85003711	     -1.85236005	      4.49785654	    -41.64770692	     10.07541075	      5.31905942	     -6.62604746	     -0.48621379	     -2.73713451
      1.56000000	     -0.40403888	     -1.48523676	      0.34491702	     -1.69344515	      1.06807053	     -0.29495089	      0.37154274	      4.69466266	     -0.58418001	    -16.18329781	     16.19843561	     -5.09631817	     15.89152838	     -1.67685082	      4.75141372	    -43.25586191	      9.25585838	      5.76253051	     -6.81917775	     -0.52990313	     -2.51749531
      1.57000000	     -0.44637717	     -1.42286324	      0.35682520	     -1.69210538	      1.06788398	     -0.29415945	      0.33356839	      4.67382451	     -0.60582489	    -16.17546184	     16.24328884	     -5.16705907	     16.90192340	     -1.51223667	      4.90607891	    -44.71363543	      8.57635360	      6.14935883	     -7.00437255	     -0.58259400	     -2.30437601
      1.58000000	     -0.49204561	     -1.34548555	      0.36903561	     -1.69059081	      1.06770396	     -0.29341471	      0.27622643	      4.63273363	     -0.63270226	    -16.14406154	     16.29163341	     -5.21934822	     17.87450437	     -1.35412306	      4.96257859	    -45.98400355	      8.07030552	      6.42863007	     -7.17238869	     -0.65382879	     -2.09861336
      1.59000000	     -0.53127774	     -1.24798507	      0.38078403	     -1.68888701	      1.06756249	     -0.29271521	      0.18347809	      4.56717085	     -0.64877156	    -16.08064575	     16.33624537	     -5.24821733	     18.79291231	     -1.20638512	      4.90258351	    -47.04163036	      7.73667304	      6.57184866	     -7.33442009	     -0.74815582	     -1.91773237
      1.60000000	     -0.58246447	     -1.14335561	      0.39461848	     -1.68701060	      1.06740760	     -0.29205753	      0.09238790	      4.49060570	     -0.67746622	    -16.01707984	     16.42162857	     -5.26404076	     19.67947877	     -1.08150641	      4.74331717	    -47.88428195	      7.61038947	      6.59237420	     -7.46964142	     -0.85085303	     -1.75156751
      1.61000000	     -0.62776175	     -1.01723166	      0.41455003	     -1.68491788	      1.06730084	     -0.29143954	     -0.03645775	      4.38884040	     -0.70988152	    -15.91807371	     16.49736554	     -5.25741183	     20.50285493	     -0.96419033	      4.49084492	    -48.48915218	      7.62701270	      6.48696386	     -7.59337038	     -0.98028229	     -1.60955338
